<svg width="30" height="30" viewBox="0 0 30 30" fill="none" xmlns="http://www.w3.org/2000/svg">
<path d="M10.5469 5.39062H10.3125C10.4414 5.39062 10.5469 5.28516 10.5469 5.15625V5.39062H19.4531V5.15625C19.4531 5.28516 19.5586 5.39062 19.6875 5.39062H19.4531V7.5H21.5625V5.15625C21.5625 4.12207 20.7217 3.28125 19.6875 3.28125H10.3125C9.27832 3.28125 8.4375 4.12207 8.4375 5.15625V7.5H10.5469V5.39062ZM25.3125 7.5H4.6875C4.16895 7.5 3.75 7.91895 3.75 8.4375V9.375C3.75 9.50391 3.85547 9.60938 3.98438 9.60938H5.75391L6.47754 24.9316C6.52441 25.9307 7.35059 26.7188 8.34961 26.7188H21.6504C22.6523 26.7188 23.4756 25.9336 23.5225 24.9316L24.2461 9.60938H26.0156C26.1445 9.60938 26.25 9.50391 26.25 9.375V8.4375C26.25 7.91895 25.8311 7.5 25.3125 7.5ZM21.4248 24.6094H8.5752L7.86621 9.60938H22.1338L21.4248 24.6094Z" fill="white"/>
</svg>
