<svg width="33" height="24" viewBox="0 0 33 24" fill="none" xmlns="http://www.w3.org/2000/svg">
<path d="M32 0H16C15.7348 0 15.4804 0.105357 15.2929 0.292893C15.1054 0.48043 15 0.734784 15 1V3.59C15 4.113 15.213 4.627 15.583 4.997L21 10.414V18C21.0002 18.1704 21.0439 18.3379 21.1269 18.4867C21.2099 18.6354 21.3295 18.7605 21.4744 18.8502C21.6193 18.9398 21.7847 18.9909 21.9549 18.9988C22.1251 19.0066 22.2945 18.9709 22.447 18.895L26.447 16.895C26.786 16.725 27 16.379 27 16V10.414L32.417 4.997C32.787 4.627 33 4.113 33 3.59V1C33 0.734784 32.8946 0.48043 32.7071 0.292893C32.5196 0.105357 32.2652 0 32 0ZM25.293 9.293C25.2 9.38571 25.1262 9.4959 25.0759 9.61724C25.0256 9.73857 24.9998 9.86866 25 10V15.382L23 16.382V10C23.0002 9.86866 22.9744 9.73857 22.9241 9.61724C22.8738 9.4959 22.8 9.38571 22.707 9.293L17 3.59V2H31.001L31.003 3.583L25.293 9.293Z" fill="white" fill-opacity="0.8"/>
</svg>
