<svg width="40" height="43" viewBox="0 0 40 43" fill="none" xmlns="http://www.w3.org/2000/svg">
<path fill-rule="evenodd" clip-rule="evenodd" d="M40 22.3875C40 29.4462 37.0816 35.7419 32.5217 39.8453V39.2493C28.9564 41.6081 24.6821 42.9816 20.087 42.9816C15.4919 42.9816 11.2175 41.6081 7.65218 39.2493V40C2.99275 35.9012 0 29.5356 0 22.3875C0 10.0232 8.9543 0 20 0C31.0457 0 40 10.0232 40 22.3875ZM32.5217 26.1612C28.9564 23.8023 24.6821 22.4288 20.087 22.4288C15.4918 22.4288 11.2175 23.8023 7.65218 26.1612V20.4164V20.4164C7.65218 13.5489 13.2194 7.98163 20.087 7.98163C26.9545 7.98163 32.5217 13.5489 32.5217 20.4164V26.1612ZM24.0268 29.1121L24.042 36.2094H25.913L25.8978 25.5023H24.2702L20.1174 32.5996L15.8885 25.5023H14.2609V36.2094H16.1471V29.2039L19.6458 34.9857H20.5281L24.0268 29.1121Z" fill="#4193A9"/>
</svg>
