<svg width="24" height="24" viewBox="0 0 24 24" fill="none" xmlns="http://www.w3.org/2000/svg">
<path d="M8.57122 15.4285L15.4284 8.5714M8.57122 6.28569L5.14265 2.85712H11.9998C13.8256 2.85695 15.6097 3.40326 17.1225 4.42572C18.6352 5.44818 19.8072 6.89999 20.4878 8.59426C20.9106 9.64683 21.1426 10.7965 21.1426 12C21.1426 14.4248 20.1794 16.7503 18.4648 18.4649C16.7501 20.1796 14.4246 21.1428 11.9998 21.1428C9.57495 21.1428 7.24943 20.1796 5.53481 18.4649C3.8202 16.7503 2.85693 14.4248 2.85693 12C2.85693 10.2971 3.27979 8.03197 4.61465 6.18169L8.57122 6.28569ZM8.57122 8.5714L15.4284 15.4285L8.57122 8.5714Z" stroke="white" stroke-linecap="round" stroke-linejoin="round"/>
</svg>
