<svg width="645" height="700" viewBox="0 0 645 700" fill="none" xmlns="http://www.w3.org/2000/svg">
<path d="M294.708 58.3333C133.708 58.3333 3.33331 189 3.33331 350C3.33331 511 133.708 641.667 294.708 641.667C456 641.667 586.667 511 586.667 350C586.667 189 456 58.3333 294.708 58.3333ZM295 583.333C166.083 583.333 61.6666 478.917 61.6666 350C61.6666 221.083 166.083 116.667 295 116.667C423.917 116.667 528.333 221.083 528.333 350C528.333 478.917 423.917 583.333 295 583.333ZM397.083 320.833C421.292 320.833 440.833 301.292 440.833 277.083C440.833 252.875 421.292 233.333 397.083 233.333C372.875 233.333 353.333 252.875 353.333 277.083C353.333 301.292 372.875 320.833 397.083 320.833ZM192.917 320.833C217.125 320.833 236.667 301.292 236.667 277.083C236.667 252.875 217.125 233.333 192.917 233.333C168.708 233.333 149.167 252.875 149.167 277.083C149.167 301.292 168.708 320.833 192.917 320.833ZM295 408.333C227.042 408.333 169.292 450.917 145.958 510.417H444.042C420.708 450.917 362.958 408.333 295 408.333Z" fill="white" fill-opacity="0.1"/>
</svg>
