<svg width="644" height="700" viewBox="0 0 644 700" fill="none" xmlns="http://www.w3.org/2000/svg">
<path d="M349.708 58.3333C188.708 58.3333 58.3333 189 58.3333 350C58.3333 511 188.708 641.667 349.708 641.667C511 641.667 641.667 511 641.667 350C641.667 189 511 58.3333 349.708 58.3333ZM350 583.333C221.083 583.333 116.667 478.917 116.667 350C116.667 221.083 221.083 116.667 350 116.667C478.917 116.667 583.333 221.083 583.333 350C583.333 478.917 478.917 583.333 350 583.333ZM452.083 320.833C476.292 320.833 495.833 301.292 495.833 277.083C495.833 252.875 476.292 233.333 452.083 233.333C427.875 233.333 408.333 252.875 408.333 277.083C408.333 301.292 427.875 320.833 452.083 320.833ZM247.917 320.833C272.125 320.833 291.667 301.292 291.667 277.083C291.667 252.875 272.125 233.333 247.917 233.333C223.708 233.333 204.167 252.875 204.167 277.083C204.167 301.292 223.708 320.833 247.917 320.833ZM350 510.417C417.958 510.417 475.708 467.833 499.042 408.333H200.958C224.292 467.833 282.042 510.417 350 510.417Z" fill="white" fill-opacity="0.1"/>
</svg>
